<svg width="44" height="51" viewBox="0 0 44 51" fill="none" xmlns="http://www.w3.org/2000/svg">
<path d="M37.1115 6.07858C37.1115 15.081 30.3231 22.3756 21.9618 22.3756C13.6005 22.3756 6.80469 15.081 6.80469 6.07858V1.52148H37.1115V6.07858Z" stroke="#8A30F6" stroke-width="2.5" stroke-linecap="round" stroke-linejoin="round"/>
<path d="M7.16797 35.1293C8.67404 27.8347 14.7206 22.3838 21.9616 22.3838C29.2025 22.3838 35.4049 27.9864 36.8071 35.4246V46.4781" stroke="#8A30F6" stroke-width="2.5" stroke-linecap="round" stroke-linejoin="round"/>
<path d="M2.14551 1.52148H41.7781" stroke="#8A30F6" stroke-width="2.5" stroke-linecap="round" stroke-linejoin="round"/>
<path d="M5.51367 49.1116H34.5147C35.6869 49.1116 36.6292 48.0901 36.6292 46.8371C36.6292 45.5761 35.6795 44.5625 34.5147 44.5625H8.31065C7.16812 44.5625 6.24816 43.5729 6.24816 42.3438C6.24816 41.1148 7.16812 40.1251 8.31065 40.1251H34.307C35.4495 40.1251 36.3695 39.1355 36.3695 37.9064V37.6111C36.3695 36.3821 35.4495 35.3925 34.307 35.3925H28.9504L21.9543 31.1865L14.9581 35.3925L7.22005 35.4084" stroke="#8A30F6" stroke-width="2.5" stroke-linecap="round" stroke-linejoin="round"/>
<path d="M10.0615 16.1104H33.8618" stroke="#8A30F6" stroke-width="2.5" stroke-linecap="round" stroke-linejoin="round"/>
</svg>
