<svg width="44" height="57" viewBox="0 0 44 57" fill="none" xmlns="http://www.w3.org/2000/svg">
<path d="M5.80058 27.2941C2.96519 32.5662 3.26815 38.0227 12.7129 38.525C17.8966 46.9548 22.1702 45.0437 25.3097 39.1996C28.4478 33.3686 27.7425 19.639 23.0788 13.278C17.5978 20.4589 9.37412 20.69 5.81418 27.282L5.80058 27.2941Z" stroke="#8A30F6" stroke-width="2.5" stroke-linecap="round" stroke-linejoin="round"/>
<path d="M9.98903 48.7282C11.9311 39.1668 15.4079 27.1805 21.2896 21.598" stroke="#8A30F6" stroke-width="2.5" stroke-linecap="round" stroke-linejoin="round"/>
<path d="M2.52148 9.19629L4.41775 18.2134L12.1702 13.351" stroke="#8A30F6" stroke-width="2.5" stroke-linecap="round" stroke-linejoin="round"/>
<path d="M42.137 29.818L37.2613 22.0068L31.6484 29.227" stroke="#8A30F6" stroke-width="2.5" stroke-linecap="round" stroke-linejoin="round"/>
<path d="M36.8949 23.8975C36.8949 27.4718 36.8061 31.8664 36.0777 36.1543C35.3494 40.4422 31.8897 44.939 26.2716 44.939M14.0139 49.4863H32.5593C33.8808 49.4863 34.9519 50.6385 34.9519 52.0601V52.3968C34.9519 53.8183 33.8808 54.9706 32.5593 54.9706H4.00098" stroke="#8A30F6" stroke-width="2.5" stroke-linecap="round" stroke-linejoin="round"/>
<path d="M4.64598 17.2325C5.63933 7.80549 14.1296 1.30887 22.3408 2.14236C28.0106 2.71641 32.4866 6.5982 34.3195 11.8164" stroke="#8A30F6" stroke-width="2.5" stroke-linecap="round" stroke-linejoin="round"/>
</svg>
